<svg width="240" height="76" viewBox="0 0 240 76" fill="none" xmlns="http://www.w3.org/2000/svg">
<path d="M73.0608 22.9209H23.1875C17.1085 22.9209 11.2785 20.506 6.97998 16.2075C2.68148 11.909 0.266602 6.079 0.266602 0L38.2266 0C45.6364 0.00328047 52.8832 2.17538 59.0732 6.2484C65.2632 10.3214 70.1256 16.1172 73.0608 22.9209Z" fill="white"/>
<path d="M76.0951 36.0727V49.372H39.9971V26.4553H74.8313C75.5639 29.6125 75.9871 32.8335 76.0951 36.0727Z" fill="white"/>
<path d="M51.4596 53.0791H51.4554C45.1271 53.0791 39.9971 58.2092 39.9971 64.5374V64.5417C39.9971 70.8699 45.1271 76 51.4554 76H51.4596C57.7879 76 62.918 70.8699 62.918 64.5417V64.5374C62.918 58.2092 57.7879 53.0791 51.4596 53.0791Z" fill="#DF5000"/>
<path d="M36.6633 26.4553V75.7936C26.8843 75.3985 17.6377 71.2339 10.8613 64.1724C4.08486 57.1109 0.304535 47.7006 0.312513 37.9137V26.4553H36.6633Z" fill="white"/>
<path d="M137.041 48.5H123.487L122.665 43.2869C122.391 41.5597 121.991 40.2222 121.465 39.2743C120.938 38.3054 120.169 37.6314 119.158 37.2523C118.168 36.8521 116.82 36.652 115.114 36.652L101.844 36.5888V27.4263L116.725 27.3631C118.916 27.3421 120.485 26.9313 121.433 26.131C122.381 25.3306 122.855 24.1931 122.855 22.7187V22.4344C122.855 20.96 122.381 19.8331 121.433 19.0537C120.485 18.2533 118.916 17.8531 116.725 17.8531H101.844V8.12197H118.084C124.192 8.12197 128.647 9.09087 131.448 11.0287C134.271 12.9665 135.682 15.8311 135.682 19.6224V19.9068C135.682 22.8346 134.797 25.0567 133.028 26.5733C131.28 28.0898 128.689 28.9323 125.256 29.1009V31.0913L123.739 29.3536C126.478 29.5642 128.615 30.0908 130.153 30.9333C131.712 31.7759 132.891 33.0081 133.692 34.6299C134.492 36.2518 135.135 38.3476 135.619 40.9173L137.041 48.5ZM105.478 48.5H92.9661V8.12197H105.446V31.2177L105.478 35.5462V48.5ZM152.365 48.5H139.095L156.188 8.12197H174.734L191.606 48.5H178.336L165.919 15.9891H165.003L152.365 48.5ZM177.704 39.8431H152.965V30.1751H177.704V39.8431ZM217.137 49.9218C208.944 49.9218 202.793 48.0366 198.686 44.2663C194.579 40.4749 192.525 35.1986 192.525 28.4374V27.9318C192.525 21.318 194.547 16.1365 198.591 12.3873C202.656 8.61695 208.744 6.7318 216.853 6.7318C218.938 6.7318 220.886 6.86871 222.698 7.14253C224.509 7.39529 226.184 7.7639 227.721 8.24835C229.28 8.71174 230.712 9.26991 232.018 9.92287L233.093 20.3807C231.092 19.5382 228.933 18.8115 226.616 18.2007C224.32 17.5898 221.718 17.2844 218.812 17.2844C214.431 17.2844 211.208 18.2323 209.144 20.128C207.08 22.0236 206.048 24.6039 206.048 27.8687V28.3742C206.048 31.6811 207.09 34.3034 209.175 36.2413C211.282 38.158 214.726 39.1164 219.507 39.1164C222.245 39.1164 224.752 38.811 227.026 38.2001C229.322 37.5893 231.471 36.8837 233.472 36.0833L232.397 46.7623C231.134 47.3731 229.722 47.9208 228.164 48.4052C226.626 48.8897 224.931 49.2583 223.077 49.511C221.245 49.7849 219.265 49.9218 217.137 49.9218ZM95.5569 55.3488V71.5H90.4259V55.3488H95.5569ZM93.0293 71.5V67.4306H105.01V71.5H93.0293ZM116.129 72.0687C112.876 72.0687 110.408 71.3231 108.723 69.8318C107.046 68.3321 106.208 66.2258 106.208 63.5129V63.3359C106.208 60.623 107.046 58.5209 108.723 57.0296C110.408 55.5299 112.876 54.7801 116.129 54.7801C119.381 54.7801 121.845 55.5299 123.522 57.0296C125.207 58.5209 126.049 60.623 126.049 63.3359V63.5129C126.049 66.2258 125.207 68.3321 123.522 69.8318C121.845 71.3231 119.381 72.0687 116.129 72.0687ZM116.129 67.9235C117.628 67.9235 118.766 67.5359 119.541 66.7608C120.324 65.9772 120.716 64.8988 120.716 63.5255V63.3233C120.716 61.95 120.324 60.8758 119.541 60.1006C118.766 59.3171 117.628 58.9253 116.129 58.9253C114.62 58.9253 113.479 59.3171 112.704 60.1006C111.929 60.8758 111.541 61.95 111.541 63.3233V63.5255C111.541 64.8988 111.929 65.9772 112.704 66.7608C113.479 67.5359 114.62 67.9235 116.129 67.9235ZM136.506 72.0687C134.812 72.0687 133.338 71.7359 132.082 71.0703C130.827 70.4047 129.854 69.44 129.163 68.1762C128.472 66.9124 128.127 65.3833 128.127 63.5887V63.3865C128.127 60.6904 129.003 58.5841 130.755 57.0675C132.508 55.551 135.107 54.7927 138.553 54.7927C139.547 54.7927 140.478 54.8475 141.346 54.957C142.214 55.0581 143.018 55.2056 143.76 55.3993C144.501 55.5847 145.179 55.808 145.794 56.0691L146.262 60.1385C145.268 59.8184 144.219 59.5404 143.115 59.3044C142.011 59.0685 140.748 58.9506 139.324 58.9506C137.293 58.9506 135.806 59.3255 134.863 60.0754C133.927 60.8168 133.46 61.8994 133.46 63.3233V63.5255C133.46 64.8567 133.852 65.9183 134.635 66.7102C135.427 67.5022 136.653 67.8982 138.313 67.8982C139.012 67.8982 139.615 67.835 140.12 67.7086C140.634 67.5823 141.072 67.4138 141.434 67.2031C141.797 66.9841 142.096 66.7524 142.332 66.508V64.4101L142.888 65.4717L138.073 65.5223V61.9331H146.831V68.5806H142.281C142.113 69.2884 141.822 69.9034 141.409 70.4258C140.996 70.9481 140.398 71.3526 139.615 71.639C138.831 71.9255 137.795 72.0687 136.506 72.0687ZM142.306 71.5L142.458 67.5823H146.831V71.5H142.306ZM155.241 55.3488V71.5H150.11V55.3488H155.241ZM165.994 71.955C164.991 71.955 164.035 71.8918 163.125 71.7654C162.215 71.639 161.373 71.4789 160.598 71.2852C159.831 71.0914 159.148 70.8934 158.55 70.6912L158.007 66.1289C159.009 66.5333 160.21 66.9124 161.609 67.2663C163.016 67.6117 164.465 67.7845 165.956 67.7845C167.237 67.7845 168.113 67.7044 168.585 67.5443C169.065 67.3758 169.305 67.081 169.305 66.6597V66.6091C169.305 66.3143 169.187 66.0868 168.951 65.9267C168.724 65.7666 168.319 65.636 167.738 65.5349C167.165 65.4338 166.365 65.3285 165.337 65.219C163.66 65.0252 162.262 64.7514 161.141 64.3975C160.029 64.0437 159.195 63.5213 158.639 62.8304C158.091 62.1395 157.817 61.1959 157.817 59.9995V59.9111C157.817 58.226 158.479 56.9706 159.801 56.145C161.133 55.3109 163.1 54.8938 165.703 54.8938C167.338 54.8938 168.745 55.016 169.924 55.2603C171.112 55.4962 172.153 55.7869 173.046 56.1323L173.615 60.3028C172.545 59.8731 171.378 59.5361 170.114 59.2918C168.85 59.0475 167.553 58.9253 166.221 58.9253C165.328 58.9253 164.65 58.9674 164.187 59.0517C163.732 59.1359 163.424 59.2539 163.264 59.4055C163.112 59.5572 163.037 59.7426 163.037 59.9616V59.9743C163.037 60.2186 163.129 60.4208 163.315 60.5809C163.5 60.741 163.871 60.88 164.427 60.9979C164.991 61.1159 165.825 61.2338 166.929 61.3518C168.572 61.5203 169.962 61.7646 171.1 62.0848C172.237 62.4049 173.096 62.8978 173.678 63.5634C174.268 64.229 174.562 65.1684 174.562 66.3817V66.5207C174.562 68.3995 173.863 69.777 172.465 70.6533C171.074 71.5211 168.917 71.955 165.994 71.955ZM186.763 71.5H181.632V57.1434H186.763V71.5ZM192.981 59.355H175.415V55.3488H192.981V59.355ZM200.609 55.3488V71.5H195.478V55.3488H200.609ZM213.182 72.0687C209.904 72.0687 207.444 71.3146 205.801 69.8065C204.158 68.29 203.337 66.1795 203.337 63.4749V63.2727C203.337 60.6272 204.146 58.5546 205.763 57.0549C207.389 55.5468 209.824 54.7927 213.068 54.7927C213.902 54.7927 214.681 54.8475 215.406 54.957C216.131 55.0581 216.8 55.2056 217.415 55.3993C218.039 55.5847 218.612 55.808 219.134 56.0691L219.564 60.2523C218.764 59.9153 217.9 59.6246 216.973 59.3803C216.055 59.1359 215.014 59.0138 213.852 59.0138C212.099 59.0138 210.81 59.3929 209.984 60.1512C209.159 60.9095 208.746 61.9415 208.746 63.2475V63.4497C208.746 64.7724 209.163 65.8214 209.997 66.5965C210.84 67.3632 212.217 67.7465 214.13 67.7465C215.225 67.7465 216.228 67.6244 217.137 67.3801C218.056 67.1357 218.915 66.8535 219.716 66.5333L219.286 70.8049C218.78 71.0492 218.216 71.2683 217.592 71.4621C216.977 71.6559 216.299 71.8033 215.558 71.9044C214.825 72.0139 214.033 72.0687 213.182 72.0687ZM229.825 71.955C228.822 71.955 227.866 71.8918 226.956 71.7654C226.046 71.639 225.204 71.4789 224.429 71.2852C223.662 71.0914 222.98 70.8934 222.381 70.6912L221.838 66.1289C222.841 66.5333 224.041 66.9124 225.44 67.2663C226.847 67.6117 228.296 67.7845 229.787 67.7845C231.068 67.7845 231.944 67.7044 232.416 67.5443C232.896 67.3758 233.136 67.081 233.136 66.6597V66.6091C233.136 66.3143 233.018 66.0868 232.782 65.9267C232.555 65.7666 232.15 65.636 231.569 65.5349C230.996 65.4338 230.196 65.3285 229.168 65.219C227.491 65.0252 226.093 64.7514 224.972 64.3975C223.86 64.0437 223.026 63.5213 222.47 62.8304C221.922 62.1395 221.648 61.1959 221.648 59.9995V59.9111C221.648 58.226 222.31 56.9706 223.633 56.145C224.964 55.3109 226.931 54.8938 229.534 54.8938C231.169 54.8938 232.576 55.016 233.755 55.2603C234.943 55.4962 235.984 55.7869 236.877 56.1323L237.446 60.3028C236.376 59.8731 235.209 59.5361 233.945 59.2918C232.681 59.0475 231.384 58.9253 230.053 58.9253C229.159 58.9253 228.481 58.9674 228.018 59.0517C227.563 59.1359 227.255 59.2539 227.095 59.4055C226.944 59.5572 226.868 59.7426 226.868 59.9616V59.9743C226.868 60.2186 226.96 60.4208 227.146 60.5809C227.331 60.741 227.702 60.88 228.258 60.9979C228.822 61.1159 229.657 61.2338 230.76 61.3518C232.403 61.5203 233.793 61.7646 234.931 62.0848C236.068 62.4049 236.928 62.8978 237.509 63.5634C238.099 64.229 238.394 65.1684 238.394 66.3817V66.5207C238.394 68.3995 237.694 69.777 236.296 70.6533C234.906 71.5211 232.749 71.955 229.825 71.955Z" fill="white"/>
</svg>
